<svg xmlns="http://www.w3.org/2000/svg" viewBox="0 0 1600 900" width="1600" height="900">
  <defs>
    <radialGradient id="center-glow" cx="50%" cy="52%" r="38%">
      <stop offset="0%" stop-color="#D4670F" stop-opacity="0.30"/>
      <stop offset="100%" stop-color="#D4670F" stop-opacity="0"/>
    </radialGradient>
    <linearGradient id="dim-overlay" x1="0%" y1="0%" x2="0%" y2="100%">
      <stop offset="0%"   stop-color="#000" stop-opacity="0.40"/>
      <stop offset="45%"  stop-color="#000" stop-opacity="0.55"/>
      <stop offset="100%" stop-color="#000" stop-opacity="0.25"/>
    </linearGradient>
    <linearGradient id="bar-red" x1="0%" y1="0%" x2="100%" y2="0%">
      <stop offset="0%" stop-color="#EF4444"/>
      <stop offset="100%" stop-color="#F87171"/>
    </linearGradient>
    <linearGradient id="bar-blue" x1="0%" y1="0%" x2="100%" y2="0%">
      <stop offset="0%" stop-color="#3B82F6"/>
      <stop offset="100%" stop-color="#60A5FA"/>
    </linearGradient>
  </defs>

  <!-- ══ BACKGROUND: simulated claude.ai full-bleed ══ -->
  <rect width="1600" height="900" fill="#1a1917"/>

  <!-- Sidebar -->
  <rect x="0" y="0" width="248" height="900" fill="#111110"/>
  <rect x="248" y="0" width="1" height="900" fill="rgba(255,255,255,0.06)"/>
  <rect x="16" y="16" width="216" height="36" rx="8" fill="rgba(255,255,255,0.07)" stroke="rgba(255,255,255,0.07)" stroke-width="1"/>
  <text x="124" y="39" text-anchor="middle" font-family="system-ui, sans-serif" font-size="12" fill="rgba(255,255,255,0.35)">New conversation</text>
  <text x="28" y="78" font-family="system-ui, sans-serif" font-size="9" letter-spacing="0.6" fill="rgba(255,255,255,0.18)">TODAY</text>
  <rect x="16" y="84" width="216" height="28" rx="5" fill="rgba(255,255,255,0.07)"/>
  <text x="32" y="103" font-family="system-ui, sans-serif" font-size="11.5" fill="rgba(255,255,255,0.45)">Draft analysis on Q3</text>
  <rect x="16" y="118" width="216" height="24" rx="5"/>
  <text x="32" y="135" font-family="system-ui, sans-serif" font-size="11.5" fill="rgba(255,255,255,0.20)">Refactor auth module</text>
  <rect x="16" y="148" width="216" height="24" rx="5"/>
  <text x="32" y="165" font-family="system-ui, sans-serif" font-size="11.5" fill="rgba(255,255,255,0.15)">Explain this function</text>
  <text x="28" y="196" font-family="system-ui, sans-serif" font-size="9" letter-spacing="0.6" fill="rgba(255,255,255,0.10)">YESTERDAY</text>
  <rect x="16" y="202" width="216" height="24" rx="5"/>
  <text x="32" y="219" font-family="system-ui, sans-serif" font-size="11.5" fill="rgba(255,255,255,0.10)">Plan sprint backlog</text>
  <rect x="16" y="232" width="216" height="24" rx="5"/>
  <text x="32" y="249" font-family="system-ui, sans-serif" font-size="11.5" fill="rgba(255,255,255,0.08)">Write unit tests</text>

  <!-- Chat messages (faded background context) -->
  <rect x="278" y="60" width="820" height="90" rx="10" fill="rgba(255,255,255,0.025)"/>
  <rect x="304" y="80" width="520" height="9" rx="4" fill="rgba(255,255,255,0.07)"/>
  <rect x="304" y="99" width="380" height="9" rx="4" fill="rgba(255,255,255,0.05)"/>
  <rect x="304" y="118" width="440" height="9" rx="4" fill="rgba(255,255,255,0.04)"/>

  <rect x="820" y="182" width="360" height="48" rx="12" fill="rgba(212,103,15,0.14)" stroke="rgba(212,103,15,0.16)" stroke-width="1"/>
  <rect x="844" y="200" width="220" height="8" rx="4" fill="rgba(255,255,255,0.09)"/>
  <rect x="844" y="218" width="150" height="8" rx="4" fill="rgba(255,255,255,0.06)"/>

  <rect x="278" y="262" width="760" height="70" rx="10" fill="rgba(255,255,255,0.020)"/>
  <rect x="304" y="280" width="480" height="8" rx="4" fill="rgba(255,255,255,0.05)"/>
  <rect x="304" y="298" width="360" height="8" rx="4" fill="rgba(255,255,255,0.04)"/>
  <rect x="304" y="316" width="420" height="8" rx="4" fill="rgba(255,255,255,0.03)"/>

  <!-- Input box at bottom -->
  <rect x="278" y="762" width="1040" height="64" rx="14" fill="rgba(255,255,255,0.05)" stroke="rgba(255,255,255,0.08)" stroke-width="1"/>
  <text x="308" y="800" font-family="system-ui, sans-serif" font-size="15" fill="rgba(255,255,255,0.18)">Message Claude…</text>

  <!-- Widget bar -->
  <rect x="278" y="836" width="1040" height="30" rx="8" fill="rgba(255,255,255,0.02)" stroke="rgba(255,255,255,0.05)" stroke-width="1"/>
  <text x="300" y="856" font-family="system-ui, sans-serif" font-size="10" font-weight="600" fill="rgba(255,255,255,0.38)">5h limit</text>
  <rect x="350" y="850" width="130" height="3" rx="2" fill="rgba(255,255,255,0.07)"/>
  <rect x="350" y="850" width="130" height="3" rx="2" fill="url(#bar-red)"/>
  <text x="490" y="856" font-family="system-ui, sans-serif" font-size="10" font-weight="700" fill="rgba(255,255,255,0.55)">100% · Fri 17:50</text>
  <line x1="610" y1="842" x2="610" y2="860" stroke="rgba(255,255,255,0.08)" stroke-width="1"/>
  <text x="624" y="856" font-family="system-ui, sans-serif" font-size="10" font-weight="600" fill="rgba(255,255,255,0.38)">Weekly</text>
  <rect x="678" y="850" width="130" height="3" rx="2" fill="rgba(255,255,255,0.07)"/>
  <rect x="678" y="850" width="34" height="3" rx="2" fill="url(#bar-blue)"/>
  <text x="818" y="856" font-family="system-ui, sans-serif" font-size="10" font-weight="700" fill="rgba(255,255,255,0.55)">26% · Mon 15:00</text>

  <!-- ══ DIM + GLOW OVERLAY ══ -->
  <rect width="1600" height="900" fill="url(#dim-overlay)"/>
  <rect width="1600" height="900" fill="url(#center-glow)"/>

  <!-- ══ BRANDING OVERLAY ══ -->

  <!-- Badge top-left -->
  <rect x="16" y="14" width="164" height="28" rx="14" fill="rgba(0,0,0,0.60)"/>
  <text x="98" y="33" text-anchor="middle" font-family="system-ui, sans-serif" font-size="11" font-weight="600" letter-spacing="0.8" fill="rgba(255,253,247,0.65)">02 · CHROME EXT.</text>

  <!-- Bar chart icon -->
  <g transform="translate(736, 310)">
    <rect x="0"   y="76"  width="40" height="50"  rx="5" fill="#FFFDF7" opacity="0.92"/>
    <rect x="56"  y="46"  width="40" height="80"  rx="5" fill="#FFFDF7" opacity="0.92"/>
    <rect x="112" y="6"   width="40" height="120" rx="5" fill="#D4670F"/>
  </g>

  <!-- Title -->
  <text x="800" y="510" text-anchor="middle" font-family="system-ui, -apple-system, sans-serif" font-size="72" font-weight="700" letter-spacing="-2" fill="#FFFDF7">Claude Token Tracker</text>

  <!-- Subtitle orange -->
  <text x="800" y="574" text-anchor="middle" font-family="system-ui, sans-serif" font-size="28" font-weight="400" fill="#F59E0B">Real-time usage limits, finally visible</text>
</svg>
